<svg width="719.187" height="55.87" viewBox="0 0 190.285 14.782" xmlns:xlink="http://www.w3.org/1999/xlink" xmlns="http://www.w3.org/2000/svg"><defs><linearGradient id="prefix__a"><stop offset=".008" stop-color="#4f9cff"/><stop offset=".008" stop-color="#1f324a"/></linearGradient><linearGradient xlink:href="#prefix__a" id="prefix__b" x1="8.081" y1="47.766" x2="191.279" y2="47.766" gradientUnits="userSpaceOnUse" gradientTransform="matrix(1.03868 0 0 .32596 3.913 42.082)"/></defs><g transform="translate(-12.306 -50.26)"><rect width="190.285" height="14.782" x="12.306" y="50.26" rx="3.308" fill="url(#prefix__b)"/><g aria-label="Dieses Modpack ist ein Re-Upload eines alten Modpacks von Chimute. Es ist unverändert und kann deshalb Fehler, veraltete Mods und Sicherheitslücken wie Log4Shell enthalten. Für mehr Infos, schau mal auf chimute.org vorbei." style="line-height:1.6;-inkscape-font-specification:Ubuntu" font-size="3.528" font-family="Ubuntu" fill="#b0bac5" stroke-width=".392"><path d="M18.899 55.949q-.148 0-.314-.014t-.296-.05V53.53q.13-.035.296-.05.17-.017.318-.017.398 0 .702.137.303.135.472.41.173.275.173.695 0 .416-.173.695-.17.275-.472.412-.304.138-.706.138zm.028-.236q.515 0 .773-.268.26-.272.26-.741 0-.47-.257-.738t-.772-.268q-.173 0-.258.01l-.11.015v1.965l.107.014q.08.01.257.01zM20.762 55.928V54.1h.264v1.828zm.134-2.22q-.078 0-.134-.052-.053-.053-.053-.141 0-.085.053-.138.056-.053.134-.053.077 0 .13.053.057.053.057.138 0 .088-.057.14-.053.054-.13.054zM22.42 55.967q-.321 0-.522-.124-.198-.123-.293-.339-.092-.215-.092-.49 0-.32.117-.533.116-.211.3-.317.186-.106.39-.106.23 0 .396.099.17.095.261.296.092.198.092.505 0 .024-.004.06 0 .031-.003.06h-1.274q.014.31.166.483.155.17.48.17.18 0 .293-.032.116-.036.165-.06l.046.222q-.049.028-.194.067-.14.039-.324.039zm-.625-1.105h1.006q-.004-.18-.06-.306-.057-.131-.163-.198-.102-.07-.254-.07-.155 0-.271.08-.117.082-.184.212-.063.13-.074.282zM23.958 55.97q-.237 0-.37-.042-.131-.039-.177-.06l.064-.233.158.06q.12.046.325.046.194 0 .314-.06t.12-.208q0-.095-.043-.152-.042-.06-.137-.11-.092-.049-.254-.112-.138-.057-.254-.12-.117-.064-.19-.162-.071-.1-.071-.254 0-.152.077-.265.078-.113.22-.176.144-.064.341-.064.184 0 .31.032.128.032.18.056l-.06.23q-.045-.025-.147-.057-.103-.035-.29-.035-.148 0-.257.063-.11.06-.11.194 0 .096.046.156.046.056.138.102.092.046.226.099.151.06.271.127.124.063.198.166.074.102.074.271 0 .166-.085.282-.084.113-.243.17-.155.056-.374.056zM25.898 55.967q-.32 0-.522-.124-.198-.123-.293-.339-.092-.215-.092-.49 0-.32.117-.533.116-.211.3-.317.187-.106.391-.106.23 0 .395.099.17.095.262.296.091.198.091.505 0 .024-.003.06 0 .031-.004.06h-1.273q.014.31.165.483.156.17.48.17.18 0 .293-.032.116-.036.166-.06l.046.222q-.05.028-.194.067-.141.039-.325.039zm-.624-1.105h1.005q-.003-.18-.06-.306-.056-.131-.162-.198-.102-.07-.254-.07-.155 0-.272.08-.116.082-.183.212-.064.13-.074.282zM27.436 55.97q-.236 0-.37-.042-.13-.039-.177-.06l.064-.233.159.06q.12.046.324.046.194 0 .314-.06t.12-.208q0-.095-.042-.152-.043-.06-.138-.11-.091-.049-.254-.112-.137-.057-.254-.12-.116-.064-.19-.162-.07-.1-.07-.254 0-.152.077-.265.077-.113.218-.176.145-.064.343-.064.183 0 .31.032t.18.056l-.06.23q-.046-.025-.148-.057-.102-.035-.29-.035-.148 0-.257.063-.11.06-.11.194 0 .096.047.156.045.056.137.102.092.046.226.099.152.06.272.127.123.063.197.166.074.102.074.271 0 .166-.084.282-.085.113-.244.17-.155.056-.374.056zM29.341 55.928q.014-.325.032-.646.018-.32.039-.628.021-.31.046-.603.024-.296.056-.568h.247q.102.17.215.395.117.222.233.47.116.243.222.48.11.236.194.426l.19-.427q.11-.236.227-.48.116-.247.232-.469.117-.226.216-.395h.232q.032.272.057.568.028.293.046.603l.039.628q.02.321.035.646h-.275q-.014-.36-.032-.706-.014-.349-.035-.674-.021-.324-.05-.613l-.113.222q-.074.152-.169.353l-.194.405-.176.385q-.078.176-.12.279h-.237q-.042-.103-.123-.28-.078-.176-.177-.384-.095-.208-.19-.405-.095-.201-.173-.353-.074-.155-.11-.222-.027.289-.049.613-.02.325-.038.674l-.029.706zM33.183 55.97q-.243 0-.434-.116-.19-.12-.3-.335-.106-.216-.106-.505 0-.29.106-.5.11-.216.3-.336.19-.12.434-.12.247 0 .437.12t.297.335q.11.212.11.501 0 .29-.11.505-.106.215-.297.335-.187.116-.437.116zm0-.236q.176 0 .303-.088.127-.089.194-.25.071-.163.071-.382t-.07-.38q-.068-.163-.195-.251-.127-.089-.303-.089-.173 0-.3.089-.127.088-.197.25-.067.162-.067.381t.067.381q.07.162.197.25.127.089.3.089zM35.31 55.97q-.268 0-.472-.113-.205-.116-.318-.328-.113-.215-.113-.511 0-.283.095-.498.1-.215.283-.335.187-.123.448-.123.169 0 .296.049.13.046.194.092v-.967l.261-.046v2.681q-.067.022-.166.046-.099.021-.226.036-.123.017-.282.017zm.004-.236q.155 0 .254-.014.102-.018.155-.032V54.45q-.06-.05-.183-.1-.124-.052-.28-.052-.158 0-.27.056-.11.053-.18.152-.068.099-.1.23-.028.13-.028.278 0 .23.078.392.081.158.222.243.145.085.332.085zM36.577 56.58v-2.416q.07-.025.166-.046.098-.021.225-.035.127-.018.283-.018.271 0 .476.117.204.112.317.328.113.211.113.508 0 .278-.099.494-.095.215-.278.338-.184.12-.448.12-.17 0-.3-.046-.127-.05-.19-.095v.751zm.723-.846q.159 0 .268-.053.113-.057.18-.155.07-.1.099-.226.031-.13.031-.279 0-.23-.077-.391-.078-.163-.222-.247-.142-.085-.332-.085-.155 0-.258.018-.098.014-.148.028v1.238q.06.046.184.099.123.053.275.053zM39.194 55.967q-.197 0-.352-.057-.156-.056-.244-.183t-.088-.335q0-.201.099-.325.098-.127.271-.183.177-.057.395-.057.1 0 .209.018.109.017.137.032v-.106q0-.12-.032-.23-.028-.112-.12-.183-.091-.07-.278-.07-.194 0-.297.028-.102.028-.151.045l-.036-.225q.064-.029.195-.053.13-.025.306-.025.25 0 .396.088.148.088.211.244.067.151.067.349v1.146q-.074.018-.264.05t-.424.032zm.04-.226q.123 0 .221-.007.1-.01.166-.025v-.614q-.035-.017-.12-.035-.084-.018-.219-.018-.112 0-.229.025-.116.025-.197.099-.078.074-.078.222 0 .198.123.275.124.078.332.078zM41.223 55.967q-.29 0-.484-.117-.194-.12-.292-.335-.1-.215-.1-.497 0-.286.103-.501.102-.215.293-.335.194-.124.459-.124.144 0 .275.025.13.024.204.063l-.067.223q-.07-.032-.158-.053-.089-.022-.233-.022-.293 0-.448.191-.152.19-.152.533 0 .211.064.374.063.158.204.25.141.088.374.088.138 0 .24-.031.106-.032.155-.057l.053.226q-.067.035-.204.067-.138.032-.286.032zM42.094 55.928v-2.692l.265-.046v1.715l.19-.19q.106-.107.215-.22.11-.112.205-.215.095-.102.162-.18h.314q-.106.113-.25.261-.141.149-.29.3-.144.149-.268.268.113.078.233.198.124.116.244.254t.222.279q.106.14.18.268h-.307q-.106-.18-.254-.353-.148-.176-.303-.321-.156-.145-.293-.233v.907zM44.684 55.928V54.1h.264v1.828zm.134-2.22q-.078 0-.134-.052-.053-.053-.053-.141 0-.085.053-.138.056-.053.134-.053.077 0 .13.053.057.053.057.138 0 .088-.057.14-.053.054-.13.054zM45.932 55.97q-.236 0-.37-.042-.13-.039-.176-.06l.063-.233.159.06q.12.046.324.046.194 0 .314-.06t.12-.208q0-.095-.042-.152-.042-.06-.138-.11-.091-.049-.254-.112-.137-.057-.254-.12-.116-.064-.19-.162-.07-.1-.07-.254 0-.152.077-.265.078-.113.219-.176.144-.064.342-.064.183 0 .31.032t.18.056l-.06.23q-.046-.025-.148-.057-.102-.035-.29-.035-.147 0-.257.063-.11.06-.11.194 0 .096.047.156.046.056.137.102.092.046.226.099.152.06.272.127.123.063.197.166.074.102.074.271 0 .166-.084.282-.085.113-.244.17-.155.056-.374.056zM47.668 55.967q-.233 0-.367-.082-.134-.08-.19-.243-.053-.162-.053-.406v-1.665l.264-.046v.575h.716v.223h-.716v.935q0 .194.043.296.045.102.127.141.084.035.197.035.134 0 .222-.031.092-.032.145-.057l.057.215q-.053.032-.177.07-.12.04-.268.04zM50.067 55.967q-.321 0-.522-.124-.198-.123-.293-.339-.092-.215-.092-.49 0-.32.117-.533.116-.211.3-.317.187-.106.391-.106.23 0 .395.099.17.095.261.296.092.198.092.505 0 .024-.003.06 0 .031-.004.06h-1.273q.014.31.165.483.156.17.48.17.18 0 .293-.032.116-.036.166-.06l.046.222q-.05.028-.194.067-.142.039-.325.039zm-.624-1.105h1.005q-.004-.18-.06-.306-.057-.131-.162-.198-.103-.07-.254-.07-.156 0-.272.08-.116.082-.183.212-.064.13-.074.282zM51.213 55.928V54.1h.265v1.828zm.135-2.22q-.078 0-.135-.052-.052-.053-.052-.141 0-.085.052-.138.057-.053.135-.053.077 0 .13.053.056.053.056.138 0 .088-.056.14-.053.054-.13.054zM52.07 55.928v-1.764q.11-.028.286-.064.177-.035.424-.035.286 0 .444.106.159.106.223.296.067.187.067.438v1.023h-.265v-.95q0-.25-.046-.398-.046-.148-.155-.215-.11-.067-.303-.067-.149 0-.262.018-.112.017-.148.028v1.584zM54.91 55.928v-2.4q.135-.034.307-.048.173-.018.318-.018.504 0 .766.194.264.19.264.564 0 .272-.141.434-.141.163-.377.233.06.074.144.194.088.117.184.261.095.141.183.293.092.152.155.293h-.3q-.095-.184-.215-.367-.116-.187-.23-.35-.112-.162-.2-.271l-.102.007q-.05.004-.1.004h-.38v.977zm.276-1.207h.31q.222 0 .399-.031.176-.036.279-.145.105-.11.105-.328 0-.208-.102-.318-.099-.113-.265-.155-.162-.046-.349-.046-.123 0-.219.01-.095.008-.158.015zM57.884 55.967q-.32 0-.522-.124-.197-.123-.292-.339-.092-.215-.092-.49 0-.32.116-.533.117-.211.3-.317.187-.106.392-.106.229 0 .395.099.17.095.26.296.093.198.093.505 0 .024-.004.06 0 .031-.003.06h-1.274q.014.31.166.483.155.17.48.17.18 0 .292-.032.117-.036.166-.06l.046.222q-.05.028-.194.067-.141.039-.324.039zm-.624-1.105h1.005q-.003-.18-.06-.306-.056-.131-.162-.198-.102-.07-.254-.07-.155 0-.271.08-.117.082-.184.212-.063.13-.074.282zM58.833 55.028v-.25h.822v.25zM60.957 55.98q-.328 0-.525-.126-.198-.127-.29-.346-.088-.219-.088-.49v-1.535h.275v1.503q0 .391.173.571.176.177.455.177.282 0 .455-.18.177-.18.177-.568v-1.503h.275v1.535q0 .271-.092.49-.088.219-.286.346-.197.127-.529.127zM62.46 56.58v-2.416q.07-.025.166-.046.099-.021.226-.035.127-.018.282-.018.271 0 .476.117.205.112.318.328.112.211.112.508 0 .278-.098.494-.096.215-.279.338-.183.12-.448.12-.17 0-.3-.046-.127-.05-.19-.095v.751zm.723-.846q.159 0 .268-.053.113-.057.18-.155.07-.1.099-.226.032-.13.032-.279 0-.23-.078-.391-.077-.163-.222-.247-.141-.085-.332-.085-.155 0-.257.018-.099.014-.148.028v1.238q.06.046.183.099.124.053.275.053zM65.018 55.96q-.17-.008-.283-.057-.109-.05-.162-.152-.053-.105-.053-.282v-2.233l.265-.046v2.262q0 .169.06.218.063.05.211.07zM66.182 55.97q-.244 0-.434-.116-.19-.12-.3-.335-.106-.216-.106-.505 0-.29.106-.5.11-.216.3-.336.19-.12.434-.12.247 0 .437.12t.297.335q.109.212.109.501 0 .29-.11.505-.105.215-.296.335-.187.116-.437.116zm0-.236q.176 0 .303-.088.127-.089.194-.25.07-.163.07-.382t-.07-.38q-.067-.163-.194-.251-.127-.089-.303-.089-.173 0-.3.089-.127.088-.198.25-.067.162-.067.381t.067.381q.07.162.198.25.127.089.3.089zM68.066 55.967q-.198 0-.353-.057-.155-.056-.244-.183-.088-.127-.088-.335 0-.201.099-.325.099-.127.272-.183.176-.057.395-.057.099 0 .208.018.11.017.138.032v-.106q0-.12-.032-.23-.028-.112-.12-.183-.092-.07-.279-.07-.194 0-.296.028-.103.028-.152.045l-.035-.225q.063-.029.194-.053.13-.025.307-.025.25 0 .395.088.148.088.212.244.067.151.067.349v1.146q-.075.018-.265.05t-.423.032zm.038-.226q.124 0 .223-.007.098-.01.166-.025v-.614q-.036-.017-.12-.035-.085-.018-.22-.018-.112 0-.228.025-.117.025-.198.099-.078.074-.078.222 0 .198.124.275.123.078.331.078zM70.122 55.97q-.268 0-.472-.113-.205-.116-.318-.328-.113-.215-.113-.511 0-.283.095-.498.1-.215.283-.335.187-.123.448-.123.17 0 .296.049.13.046.194.092v-.967l.261-.046v2.681q-.067.022-.166.046-.098.021-.225.036-.124.017-.283.017zm.004-.236q.155 0 .254-.014.102-.018.155-.032V54.45q-.06-.05-.183-.1-.124-.052-.28-.052-.158 0-.27.056-.11.053-.18.152-.068.099-.1.23-.028.13-.028.278 0 .23.078.392.081.158.222.243.145.085.332.085zM72.997 55.967q-.32 0-.522-.124-.197-.123-.292-.339-.092-.215-.092-.49 0-.32.116-.533.117-.211.3-.317.187-.106.392-.106.229 0 .395.099.17.095.26.296.093.198.093.505 0 .024-.004.06 0 .031-.003.06h-1.274q.014.31.166.483.155.17.48.17.18 0 .292-.032.117-.036.166-.06l.046.222q-.05.028-.194.067-.141.039-.324.039zm-.624-1.105h1.005q-.003-.18-.06-.306-.056-.131-.162-.198-.102-.07-.254-.07-.155 0-.271.08-.117.082-.184.212-.063.13-.074.282zM74.144 55.928V54.1h.265v1.828zm.134-2.22q-.078 0-.134-.052-.053-.053-.053-.141 0-.085.053-.138.056-.053.134-.053.078 0 .13.053.057.053.057.138 0 .088-.056.14-.053.054-.13.054zM75.001 55.928v-1.764q.11-.028.286-.064.176-.035.423-.035.286 0 .445.106.159.106.222.296.067.187.067.438v1.023h-.264v-.95q0-.25-.046-.398-.046-.148-.156-.215-.109-.067-.303-.067-.148 0-.261.018-.113.017-.148.028v1.584zM77.816 55.967q-.32 0-.522-.124-.197-.123-.292-.339-.092-.215-.092-.49 0-.32.116-.533.117-.211.3-.317.187-.106.392-.106.229 0 .395.099.17.095.26.296.093.198.093.505 0 .024-.004.06 0 .031-.003.06h-1.274q.014.31.166.483.155.17.48.17.18 0 .292-.032.117-.036.166-.06l.046.222q-.05.028-.194.067-.141.039-.325.039zm-.624-1.105h1.005q-.003-.18-.06-.306-.056-.131-.162-.198-.102-.07-.254-.07-.155 0-.271.08-.117.082-.184.212-.063.13-.074.282zM79.355 55.97q-.237 0-.37-.042-.131-.039-.177-.06l.063-.233.159.06q.12.046.325.046.194 0 .314-.06t.12-.208q0-.095-.043-.152-.042-.06-.137-.11-.092-.049-.254-.112-.138-.057-.254-.12-.117-.064-.191-.162-.07-.1-.07-.254 0-.152.077-.265.078-.113.219-.176.144-.064.342-.064.183 0 .31.032t.18.056l-.06.23q-.045-.025-.148-.057-.102-.035-.289-.035-.148 0-.258.063-.109.06-.109.194 0 .096.046.156.046.056.138.102.091.046.225.099.152.06.272.127.123.063.197.166.075.102.075.271 0 .166-.085.282-.085.113-.244.17-.155.056-.373.056zM81.856 55.967q-.198 0-.353-.057-.155-.056-.243-.183-.089-.127-.089-.335 0-.201.1-.325.098-.127.27-.183.177-.057.396-.057.099 0 .208.018.11.017.138.032v-.106q0-.12-.032-.23-.028-.112-.12-.183-.092-.07-.279-.07-.194 0-.296.028-.102.028-.152.045l-.035-.225q.063-.029.194-.053.13-.025.307-.025.25 0 .395.088.148.088.212.244.067.151.067.349v1.146q-.074.018-.265.05-.19.032-.423.032zm.039-.226q.123 0 .222-.007.099-.01.166-.025v-.614q-.036-.017-.12-.035-.085-.018-.22-.018-.112 0-.228.025-.117.025-.198.099-.078.074-.078.222 0 .198.124.275.123.078.332.078zM83.609 55.96q-.17-.008-.282-.057-.11-.05-.162-.152-.053-.105-.053-.282v-2.233l.264-.046v2.262q0 .169.06.218.064.05.212.07zM84.636 55.967q-.233 0-.367-.082-.134-.08-.19-.243-.054-.162-.054-.406v-1.665l.265-.046v.575h.716v.223h-.716v.935q0 .194.042.296.046.102.127.141.085.035.198.035.134 0 .222-.031.092-.032.145-.057l.056.215q-.053.032-.176.07-.12.04-.268.04zM86.22 55.967q-.321 0-.523-.124-.197-.123-.292-.339-.092-.215-.092-.49 0-.32.116-.533.117-.211.3-.317.187-.106.392-.106.23 0 .395.099.17.095.261.296.092.198.092.505 0 .024-.004.06 0 .031-.003.06h-1.274q.014.31.166.483.155.17.48.17.18 0 .293-.032.116-.036.165-.06l.046.222q-.05.028-.194.067-.14.039-.324.039zm-.625-1.105h1.006q-.004-.18-.06-.306-.057-.131-.163-.198-.102-.07-.254-.07-.155 0-.271.08-.117.082-.184.212-.063.13-.074.282zM87.366 55.928v-1.764q.11-.028.286-.064.176-.035.423-.035.286 0 .445.106.158.106.222.296.067.187.067.438v1.023h-.265v-.95q0-.25-.045-.398-.046-.148-.156-.215-.109-.067-.303-.067-.148 0-.261.018-.113.017-.148.028v1.584zM90.146 55.928q.014-.325.032-.646.017-.32.039-.628.02-.31.045-.603.025-.296.057-.568h.247q.102.17.215.395.116.222.233.47.116.243.222.48.11.236.194.426l.19-.427q.11-.236.226-.48.117-.247.233-.469.117-.226.215-.395h.233q.032.272.057.568.028.293.046.603.02.307.038.628.022.321.036.646h-.276q-.014-.36-.031-.706-.014-.349-.036-.674-.02-.324-.049-.613l-.113.222-.17.353-.193.405-.177.385q-.077.176-.12.279h-.236q-.042-.103-.123-.28-.078-.176-.177-.384-.095-.208-.19-.405-.096-.201-.173-.353-.074-.155-.11-.222-.028.289-.049.613-.021.325-.039.674l-.028.706zM93.988 55.97q-.244 0-.434-.116-.19-.12-.3-.335-.106-.216-.106-.505 0-.29.106-.5.11-.216.3-.336.19-.12.434-.12.247 0 .437.12t.297.335q.109.212.109.501 0 .29-.11.505-.105.215-.296.335-.187.116-.437.116zm0-.236q.176 0 .303-.088.127-.089.194-.25.07-.163.07-.382t-.07-.38q-.067-.163-.194-.251-.127-.089-.303-.089-.173 0-.3.089-.127.088-.198.25-.067.162-.067.381t.067.381q.07.162.198.25.127.089.3.089zM96.115 55.97q-.268 0-.473-.113-.204-.116-.317-.328-.113-.215-.113-.511 0-.283.095-.498.099-.215.282-.335.187-.123.448-.123.17 0 .297.049.13.046.194.092v-.967l.26-.046v2.681q-.066.022-.165.046-.099.021-.226.036-.123.017-.282.017zm.004-.236q.155 0 .254-.014.102-.018.155-.032V54.45q-.06-.05-.184-.1-.123-.052-.278-.052-.16 0-.272.056-.11.053-.18.152-.067.099-.099.23-.028.13-.028.278 0 .23.078.392.08.158.222.243.145.085.332.085zM97.381 56.58v-2.416q.071-.025.166-.046.1-.021.226-.035.127-.018.282-.018.272 0 .477.117.204.112.317.328.113.211.113.508 0 .278-.099.494-.095.215-.279.338-.183.12-.448.12-.169 0-.3-.046-.126-.05-.19-.095v.751zm.724-.846q.158 0 .268-.053.113-.057.18-.155.07-.1.098-.226.032-.13.032-.279 0-.23-.077-.391-.078-.163-.223-.247-.14-.085-.331-.085-.155 0-.258.018-.099.014-.148.028v1.238q.06.046.184.099.123.053.275.053zM100 55.967q-.198 0-.354-.057-.155-.056-.243-.183t-.088-.335q0-.201.098-.325.1-.127.272-.183.177-.057.395-.057.099 0 .208.018.11.017.138.032v-.106q0-.12-.032-.23-.028-.112-.12-.183-.091-.07-.278-.07-.195 0-.297.028-.102.028-.152.045l-.035-.225q.064-.029.194-.053.13-.025.307-.025.25 0 .395.088.148.088.212.244.067.151.067.349v1.146q-.074.018-.265.05-.19.032-.423.032zm.038-.226q.123 0 .222-.007.099-.01.166-.025v-.614q-.035-.017-.12-.035-.085-.018-.219-.018-.113 0-.229.025t-.198.099q-.077.074-.077.222 0 .198.123.275.124.078.332.078zM102.028 55.967q-.29 0-.484-.117-.194-.12-.293-.335-.098-.215-.098-.497 0-.286.102-.501.102-.215.293-.335.194-.124.458-.124.145 0 .276.025.13.024.204.063l-.067.223q-.07-.032-.159-.053-.088-.022-.232-.022-.293 0-.448.191-.152.19-.152.533 0 .211.063.374.064.158.205.25.141.088.374.088.137 0 .24-.031.106-.032.155-.057l.053.226q-.067.035-.205.067-.137.032-.285.032zM102.899 55.928v-2.692l.264-.046v1.715l.191-.19q.106-.107.215-.22.11-.112.205-.215.095-.102.162-.18h.314q-.106.113-.25.261-.142.149-.29.3-.144.149-.268.268.113.078.233.198.123.116.243.254t.223.279q.106.14.18.268h-.307q-.106-.18-.254-.353-.148-.176-.304-.321-.155-.145-.293-.233v.907zM105.072 55.97q-.236 0-.37-.042-.13-.039-.177-.06l.064-.233.158.06q.12.046.325.046.194 0 .314-.06t.12-.208q0-.095-.042-.152-.043-.06-.138-.11-.092-.049-.254-.112-.138-.057-.254-.12-.116-.064-.19-.162-.071-.1-.071-.254 0-.152.078-.265.077-.113.218-.176.145-.064.342-.064.184 0 .31.032.128.032.18.056l-.06.23q-.045-.025-.147-.057-.103-.035-.29-.035-.148 0-.257.063-.11.06-.11.194 0 .096.046.156.046.056.138.102.092.046.226.099.151.06.271.127.124.063.198.166.074.102.074.271 0 .166-.085.282-.084.113-.243.17-.155.056-.374.056zM107.46 55.928q-.088-.187-.18-.402-.091-.216-.18-.448-.088-.233-.169-.477-.077-.247-.141-.5h.279q.056.243.14.525.09.279.188.547.102.264.194.466.07-.149.144-.34.075-.19.145-.394.07-.208.13-.413.06-.208.103-.392h.265q-.064.254-.145.501-.078.244-.166.477-.088.232-.18.448-.088.215-.18.402zM109.468 55.97q-.244 0-.434-.116-.19-.12-.3-.335-.106-.216-.106-.505 0-.29.106-.5.11-.216.3-.336.19-.12.434-.12.247 0 .437.12t.296.335q.11.212.11.501 0 .29-.11.505-.105.215-.296.335-.187.116-.437.116zm0-.236q.176 0 .303-.088.127-.089.194-.25.07-.163.07-.382t-.07-.38q-.067-.163-.194-.251-.127-.089-.303-.089-.173 0-.3.089-.127.088-.198.25-.067.162-.067.381t.067.381q.07.162.198.25.127.089.3.089zM110.798 55.928v-1.764q.109-.028.285-.064.177-.035.424-.035.285 0 .444.106.159.106.222.296.067.187.067.438v1.023h-.264v-.95q0-.25-.046-.398-.046-.148-.155-.215-.11-.067-.304-.067-.148 0-.26.018-.114.017-.149.028v1.584zM114.664 55.98q-.321 0-.578-.147-.255-.149-.403-.43-.144-.287-.144-.7 0-.306.091-.543.092-.24.25-.402.163-.162.368-.243.208-.085.434-.085.187 0 .324.032.141.028.233.067.092.039.134.067l-.088.233q-.088-.053-.23-.103-.137-.049-.335-.049-.289 0-.49.13-.197.128-.3.36-.102.23-.102.54 0 .31.099.543.099.23.289.357.194.127.473.127.233 0 .388-.043.155-.045.24-.091l.074.233q-.057.035-.247.091-.187.057-.48.057zM115.782 55.928v-2.692l.265-.046v.956q.102-.039.215-.06.117-.02.226-.02.29 0 .448.105.159.106.222.296.067.187.067.438v1.023h-.264v-.95q0-.25-.046-.398-.046-.148-.156-.215-.109-.067-.306-.067-.075 0-.163.018-.084.014-.151.031-.067.018-.092.029v1.552zM117.797 55.928V54.1h.264v1.828zm.134-2.22q-.078 0-.134-.052-.053-.053-.053-.141 0-.085.053-.138.056-.053.134-.053.077 0 .13.053.057.053.057.138 0 .088-.057.14-.053.054-.13.054zM118.654 55.928v-1.764q.11-.028.279-.064.169-.035.42-.035.176 0 .3.05.126.049.204.148.032-.025.113-.07.08-.05.204-.089.127-.039.286-.039.282 0 .424.11.144.105.194.296.049.187.049.434v1.023h-.265v-.95q0-.232-.031-.38-.032-.152-.124-.226-.092-.074-.272-.074-.13 0-.229.032-.095.028-.159.067-.06.039-.088.06.032.088.046.2.018.114.018.237v1.034h-.265v-.95q0-.232-.032-.38-.031-.152-.127-.226-.091-.074-.278-.074-.103 0-.187.01-.081.008-.138.018-.053.01-.078.018v1.584zM122.411 55.963q-.275 0-.437-.102-.16-.106-.23-.297-.067-.19-.067-.44V54.1h.265v.953q0 .247.05.395.049.148.158.215.113.064.296.064.149 0 .261-.014.117-.018.152-.029V54.1h.261v1.764q-.106.029-.286.064-.176.035-.423.035zM124.309 55.967q-.233 0-.367-.082-.134-.08-.19-.243-.053-.162-.053-.406v-1.665l.264-.046v.575h.716v.223h-.716v.935q0 .194.043.296.046.102.127.141.084.035.197.035.134 0 .222-.031.092-.032.145-.057l.057.215q-.053.032-.177.07-.12.04-.268.04zM125.893 55.967q-.321 0-.522-.124-.198-.123-.293-.339-.092-.215-.092-.49 0-.32.117-.533.116-.211.3-.317.187-.106.391-.106.23 0 .395.099.17.095.261.296.092.198.092.505 0 .024-.004.06 0 .031-.004.06h-1.273q.014.31.165.483.156.17.48.17.18 0 .293-.032.116-.036.166-.06l.046.222q-.05.028-.194.067-.141.039-.325.039zm-.624-1.105h1.005q-.004-.18-.06-.306-.056-.131-.162-.198-.103-.07-.254-.07-.156 0-.272.08-.116.082-.183.212-.064.13-.074.282zM127.177 55.97q-.095 0-.152-.06-.056-.06-.056-.148t.056-.148q.057-.06.152-.06t.152.06q.056.06.056.148t-.056.148q-.057.06-.152.06zM128.733 55.928v-2.445h1.44v.236h-1.165v.808h1.037v.233h-1.037v.931h1.252v.237zM131.086 55.97q-.236 0-.37-.042-.131-.039-.177-.06l.064-.233.158.06q.12.046.325.046.194 0 .314-.06t.12-.208q0-.095-.043-.152-.042-.06-.137-.11-.092-.049-.254-.112-.138-.057-.254-.12-.117-.064-.19-.162-.071-.1-.071-.254 0-.152.077-.265.078-.113.22-.176.144-.064.341-.064.184 0 .31.032.128.032.18.056l-.06.23q-.045-.025-.147-.057-.103-.035-.29-.035-.148 0-.257.063-.11.06-.11.194 0 .096.046.156.046.056.138.102.092.046.226.099.151.06.271.127.124.063.198.166.074.102.074.271 0 .166-.085.282-.085.113-.243.17-.155.056-.374.056zM133.033 55.928V54.1h.265v1.828zm.134-2.22q-.077 0-.134-.052-.053-.053-.053-.141 0-.085.053-.138.057-.053.134-.053.078 0 .13.053.057.053.057.138 0 .088-.056.14-.053.054-.13.054zM134.282 55.97q-.236 0-.37-.042-.13-.039-.177-.06l.064-.233.158.06q.12.046.325.046.194 0 .314-.06t.12-.208q0-.095-.042-.152-.043-.06-.138-.11-.092-.049-.254-.112-.138-.057-.254-.12-.116-.064-.19-.162-.07-.1-.07-.254 0-.152.077-.265.077-.113.218-.176.145-.064.343-.064.183 0 .31.032t.18.056l-.06.23q-.046-.025-.148-.057-.103-.035-.29-.035-.148 0-.257.063-.11.06-.11.194 0 .096.047.156.045.056.137.102.092.046.226.099.152.06.272.127.123.063.197.166.074.102.074.271 0 .166-.085.282-.084.113-.243.17-.155.056-.374.056zM136.018 55.967q-.233 0-.367-.082-.134-.08-.19-.243-.054-.162-.054-.406v-1.665l.265-.046v.575h.716v.223h-.716v.935q0 .194.042.296.046.102.127.141.085.035.198.035.134 0 .222-.031.092-.032.145-.057l.056.215q-.053.032-.176.07-.12.04-.268.04zM138.328 55.963q-.275 0-.437-.102-.159-.106-.23-.297-.066-.19-.066-.44V54.1h.264v.953q0 .247.05.395.049.148.158.215.113.064.297.064.148 0 .26-.014.117-.018.152-.029V54.1h.262v1.764q-.106.029-.286.064-.177.035-.424.035zM139.63 55.928v-1.764q.11-.028.286-.064.176-.035.423-.035.286 0 .445.106.158.106.222.296.067.187.067.438v1.023h-.265v-.95q0-.25-.045-.398-.046-.148-.156-.215t-.303-.067q-.148 0-.261.018-.113.017-.148.028v1.584zM142.078 55.928q-.088-.187-.18-.402-.091-.216-.18-.448-.088-.233-.169-.477-.077-.247-.14-.5h.278q.056.243.141.525.088.279.187.547.102.264.194.466.07-.149.145-.34.074-.19.144-.394.07-.208.13-.413.06-.208.103-.392h.265q-.064.254-.145.501-.078.244-.166.477-.088.232-.18.448-.088.215-.18.402zM144.153 55.967q-.321 0-.522-.124-.198-.123-.293-.339-.092-.215-.092-.49 0-.32.117-.533.116-.211.3-.317.186-.106.391-.106.23 0 .395.099.17.095.261.296.092.198.092.505 0 .024-.004.06 0 .031-.004.06h-1.274q.014.31.166.483.155.17.48.17.18 0 .293-.032.116-.036.166-.06l.045.222q-.049.028-.194.067-.14.039-.324.039zm-.625-1.105h1.006q-.004-.18-.06-.306-.057-.131-.163-.198-.102-.07-.254-.07-.155 0-.271.08-.117.082-.184.212-.063.13-.074.282zM145.3 55.928v-1.743q.091-.039.25-.078.162-.042.388-.042.074 0 .144.01.075.008.131.022.06.01.088.021l-.053.226q-.031-.014-.12-.028-.088-.018-.225-.018-.134 0-.223.021-.088.018-.116.032v1.577zM147.187 55.967q-.198 0-.353-.057-.155-.056-.244-.183-.088-.127-.088-.335 0-.201.1-.325.098-.127.27-.183.177-.057.396-.057.099 0 .208.018.11.017.138.032v-.106q0-.12-.032-.23-.028-.112-.12-.183-.092-.07-.279-.07-.194 0-.296.028-.102.028-.152.045l-.035-.225q.063-.029.194-.053.13-.025.307-.025.25 0 .395.088.148.088.212.244.067.151.067.349v1.146q-.075.018-.265.05t-.423.032zm.038-.226q.124 0 .223-.007.099-.01.166-.025v-.614q-.036-.017-.12-.035-.085-.018-.22-.018-.112 0-.228.025-.117.025-.198.099-.078.074-.078.222 0 .198.124.275.123.078.331.078zm.343-2.007q-.074 0-.127-.05-.05-.053-.05-.134 0-.081.05-.13.053-.05.127-.05.074 0 .123.05.053.049.053.13t-.053.134q-.05.05-.123.05zm-.625 0q-.074 0-.123-.05-.05-.053-.05-.134 0-.081.05-.13.05-.05.123-.05.074 0 .124.05.053.049.053.13t-.053.134q-.05.05-.124.05zM148.446 55.928v-1.764q.11-.028.286-.064.176-.035.423-.035.286 0 .445.106.158.106.222.296.067.187.067.438v1.023h-.265v-.95q0-.25-.046-.398-.045-.148-.155-.215t-.303-.067q-.148 0-.261.018-.113.017-.148.028v1.584zM151.258 55.97q-.268 0-.473-.113-.205-.116-.318-.328-.112-.215-.112-.511 0-.283.095-.498.099-.215.282-.335.187-.123.448-.123.17 0 .296.049.13.046.194.092v-.967l.261-.046v2.681q-.067.022-.165.046-.1.021-.226.036-.124.017-.282.017zm.004-.236q.155 0 .254-.014.102-.018.155-.032V54.45q-.06-.05-.184-.1-.123-.052-.278-.052-.159 0-.272.056-.11.053-.18.152-.067.099-.099.23-.028.13-.028.278 0 .23.078.392.08.158.222.243.145.085.332.085zM153.325 55.967q-.321 0-.522-.124-.198-.123-.293-.339-.092-.215-.092-.49 0-.32.117-.533.116-.211.3-.317.187-.106.391-.106.23 0 .395.099.17.095.261.296.092.198.092.505 0 .024-.004.06 0 .031-.004.06h-1.273q.014.31.165.483.156.17.48.17.18 0 .293-.032.116-.036.166-.06l.046.222q-.05.028-.194.067-.141.039-.325.039zm-.624-1.105h1.005q-.004-.18-.06-.306-.056-.131-.162-.198-.103-.07-.254-.07-.156 0-.272.08-.116.082-.183.212-.064.13-.074.282zM154.472 55.928v-1.743q.091-.039.25-.078.162-.042.388-.042.074 0 .145.01.074.008.13.022.06.01.088.021l-.053.226q-.031-.014-.12-.028-.088-.018-.225-.018-.134 0-.222.021-.089.018-.117.032v1.577zM156.405 55.967q-.233 0-.367-.082-.134-.08-.19-.243-.054-.162-.054-.406v-1.665l.265-.046v.575h.716v.223h-.716v.935q0 .194.042.296.046.102.127.141.085.035.198.035.134 0 .222-.031.092-.032.145-.057l.056.215q-.053.032-.176.07-.12.04-.268.04zM158.715 55.963q-.275 0-.437-.102-.159-.106-.23-.297-.066-.19-.066-.44V54.1h.264v.953q0 .247.05.395.05.148.158.215.113.064.297.064.148 0 .26-.014.117-.018.152-.029V54.1h.262v1.764q-.106.029-.286.064-.177.035-.424.035zM160.017 55.928v-1.764q.11-.028.286-.064.176-.035.423-.035.286 0 .445.106.159.106.222.296.067.187.067.438v1.023h-.265v-.95q0-.25-.045-.398-.046-.148-.156-.215t-.303-.067q-.148 0-.261.018-.113.017-.148.028v1.584zM162.829 55.97q-.268 0-.473-.113-.205-.116-.317-.328-.113-.215-.113-.511 0-.283.095-.498.099-.215.282-.335.187-.123.448-.123.17 0 .296.049.131.046.195.092v-.967l.26-.046v2.681q-.066.022-.165.046-.099.021-.226.036-.123.017-.282.017zm.004-.236q.155 0 .254-.014.102-.018.155-.032V54.45q-.06-.05-.183-.1-.124-.052-.28-.052-.158 0-.27.056-.11.053-.18.152-.068.099-.1.23-.028.13-.028.278 0 .23.078.392.081.158.222.243.145.085.332.085zM164.903 55.928v-2.692l.265-.046v1.715l.19-.19q.106-.107.215-.22.11-.112.205-.215.095-.102.162-.18h.314q-.106.113-.25.261-.141.149-.29.3-.144.149-.268.268.113.078.233.198.124.116.244.254t.222.279q.106.14.18.268h-.307q-.106-.18-.254-.353-.148-.176-.303-.321-.156-.145-.293-.233v.907zM167.235 55.967q-.198 0-.353-.057-.155-.056-.243-.183t-.088-.335q0-.201.098-.325.1-.127.272-.183.176-.057.395-.057.099 0 .208.018.11.017.138.032v-.106q0-.12-.032-.23-.028-.112-.12-.183-.091-.07-.278-.07-.194 0-.297.028-.102.028-.151.045l-.036-.225q.064-.029.194-.053.13-.025.307-.025.25 0 .395.088.148.088.212.244.067.151.067.349v1.146q-.074.018-.265.05-.19.032-.423.032zm.039-.226q.123 0 .222-.007.099-.01.166-.025v-.614q-.035-.017-.12-.035-.085-.018-.219-.018-.113 0-.23.025-.116.025-.197.099-.077.074-.077.222 0 .198.123.275.124.078.332.078zM168.494 55.928v-1.764q.11-.028.286-.064.177-.035.424-.035.285 0 .444.106.159.106.222.296.067.187.067.438v1.023h-.264v-.95q0-.25-.046-.398-.046-.148-.155-.215-.11-.067-.304-.067-.148 0-.26.018-.114.017-.149.028v1.584zM170.509 55.928v-1.764q.11-.028.286-.064.176-.035.423-.035.286 0 .444.106.16.106.223.296.067.187.067.438v1.023h-.265v-.95q0-.25-.046-.398-.046-.148-.155-.215-.11-.067-.303-.067-.149 0-.262.018-.112.017-.148.028v1.584zM174.128 55.97q-.268 0-.472-.113-.205-.116-.318-.328-.113-.215-.113-.511 0-.283.095-.498.1-.215.283-.335.187-.123.448-.123.17 0 .296.049.13.046.194.092v-.967l.261-.046v2.681q-.067.022-.166.046-.098.021-.225.036-.124.017-.283.017zm.004-.236q.155 0 .254-.014.103-.018.155-.032V54.45q-.06-.05-.183-.1-.123-.052-.279-.052-.158 0-.271.056-.11.053-.18.152-.067.099-.099.23-.028.13-.028.278 0 .23.077.392.082.158.223.243.144.085.331.085zM176.196 55.967q-.321 0-.523-.124-.197-.123-.292-.339-.092-.215-.092-.49 0-.32.116-.533.117-.211.3-.317.187-.106.392-.106.23 0 .395.099.17.095.261.296.092.198.092.505 0 .024-.004.06 0 .031-.004.06h-1.274q.014.31.166.483.155.17.48.17.18 0 .293-.032.116-.036.165-.06l.046.222q-.05.028-.194.067-.14.039-.324.039zm-.625-1.105h1.006q-.004-.18-.06-.306-.057-.131-.163-.198-.102-.07-.254-.07-.155 0-.271.08-.117.082-.184.212-.063.13-.074.282zM177.734 55.97q-.237 0-.37-.042-.131-.039-.177-.06l.063-.233.16.06q.12.046.324.046.194 0 .314-.06t.12-.208q0-.095-.043-.152-.042-.06-.137-.11-.092-.049-.254-.112-.138-.057-.254-.12-.117-.064-.19-.162-.071-.1-.071-.254 0-.152.077-.265.078-.113.219-.176.145-.064.342-.064.184 0 .31.032.128.032.18.056l-.06.23q-.045-.025-.148-.057-.102-.035-.289-.035-.148 0-.257.063-.11.06-.11.194 0 .096.046.156.046.056.138.102.091.046.225.099.152.06.272.127.124.063.198.166.074.102.074.271 0 .166-.085.282-.085.113-.243.17-.156.056-.374.056zM178.873 55.928v-2.692l.265-.046v.956q.102-.039.215-.06.116-.02.226-.02.289 0 .448.105.158.106.222.296.067.187.067.438v1.023h-.265v-.95q0-.25-.045-.398-.046-.148-.156-.215t-.307-.067q-.074 0-.162.018-.085.014-.152.031-.067.018-.091.029v1.552zM181.441 55.967q-.197 0-.352-.057-.156-.056-.244-.183t-.088-.335q0-.201.099-.325.099-.127.271-.183.177-.057.396-.057.098 0 .208.018.109.017.137.032v-.106q0-.12-.032-.23-.028-.112-.12-.183-.091-.07-.278-.07-.194 0-.297.028-.102.028-.151.045l-.036-.225q.064-.029.194-.053.131-.025.307-.025.25 0 .396.088.148.088.211.244.067.151.067.349v1.146q-.074.018-.264.05t-.424.032zm.04-.226q.123 0 .221-.007.1-.01.166-.025v-.614q-.035-.017-.12-.035-.084-.018-.218-.018-.113 0-.23.025-.116.025-.197.099-.078.074-.078.222 0 .198.124.275.123.078.331.078zM183.195 55.96q-.17-.008-.283-.057-.109-.05-.162-.152-.053-.105-.053-.282v-2.233l.265-.046v2.262q0 .169.06.218.063.05.212.07zM184.299 55.97q-.155 0-.282-.017-.127-.015-.226-.036-.095-.024-.166-.046v-2.635l.265-.046v1.013q.063-.046.19-.092.13-.05.3-.05.265 0 .448.124.183.12.279.335.099.215.099.494 0 .296-.113.512-.113.211-.318.328-.204.116-.476.116zm-.004-.236q.19 0 .331-.085.145-.085.223-.243.077-.163.077-.392 0-.148-.031-.279-.029-.13-.1-.229-.066-.099-.18-.152-.108-.056-.267-.056-.152 0-.275.053-.124.05-.184.099v1.238q.05.014.148.032.103.014.258.014zM186.514 55.928v-2.445h1.422v.236h-1.147v.822h1.016v.237h-1.016v1.15zM189.15 55.967q-.321 0-.523-.124-.197-.123-.292-.339-.092-.215-.092-.49 0-.32.116-.533.117-.211.3-.317.187-.106.392-.106.23 0 .395.099.17.095.261.296.092.198.092.505 0 .024-.004.06 0 .031-.004.06h-1.274q.014.31.166.483.155.17.48.17.18 0 .293-.032.116-.036.165-.06l.046.222q-.05.028-.194.067-.14.039-.324.039zm-.625-1.105h1.006q-.004-.18-.06-.306-.057-.131-.163-.198-.102-.07-.254-.07-.155 0-.271.08-.117.082-.184.212-.063.13-.074.282zM190.296 55.928v-2.692l.265-.046v.956q.102-.039.215-.06.116-.02.226-.02.289 0 .448.105.158.106.222.296.067.187.067.438v1.023h-.265v-.95q0-.25-.046-.398-.045-.148-.155-.215t-.307-.067q-.074 0-.162.018-.085.014-.152.031-.067.018-.091.029v1.552zM192.804 55.96q-.169-.008-.282-.057-.11-.05-.162-.152-.053-.105-.053-.282v-2.233l.265-.046v2.262q0 .169.06.218.063.05.211.07zM194.036 55.967q-.321 0-.523-.124-.197-.123-.292-.339-.092-.215-.092-.49 0-.32.116-.533.117-.211.3-.317.187-.106.392-.106.23 0 .395.099.17.095.261.296.092.198.092.505 0 .024-.004.06 0 .031-.004.06h-1.274q.014.31.166.483.155.17.48.17.18 0 .293-.032.116-.036.165-.06l.046.222q-.05.028-.194.067-.14.039-.324.039zm-.625-1.105h1.006q-.004-.18-.06-.306-.057-.131-.163-.198-.102-.07-.254-.07-.155 0-.271.08-.117.082-.184.212-.063.13-.074.282zM195.182 55.928v-1.743q.092-.039.25-.078.163-.042.389-.042.074 0 .144.01.074.008.13.022.06.01.089.021l-.053.226q-.032-.014-.12-.028-.088-.018-.226-.018-.134 0-.222.021-.088.018-.116.032v1.577zM196.417 56.489l-.198-.078q.081-.166.113-.342.035-.173.035-.35 0-.028-.004-.052v-.05q0-.024-.004-.045h.293q.004.035.004.063v.042q0 .216-.063.424-.064.211-.177.388zM18.712 61.572q-.088-.187-.18-.402-.092-.215-.18-.448t-.17-.476q-.077-.247-.14-.501h.278q.057.243.142.526.088.278.187.546.102.265.194.466.07-.148.144-.339.074-.19.145-.395.07-.208.13-.413.06-.208.103-.391h.264q-.063.254-.144.5-.078.244-.166.477-.088.233-.18.448-.088.215-.18.402zM20.786 61.611q-.32 0-.522-.123-.197-.124-.293-.34-.091-.214-.091-.49 0-.32.116-.532.117-.212.3-.318.187-.105.392-.105.229 0 .395.098.169.096.26.297.092.197.092.504 0 .025-.003.06 0 .032-.004.06h-1.273q.014.31.166.483.155.17.48.17.18 0 .292-.032.117-.035.166-.06l.046.222q-.05.028-.194.067-.141.04-.325.04zm-.624-1.104h1.005q-.003-.18-.06-.307-.056-.13-.162-.198-.102-.07-.254-.07-.155 0-.272.081-.116.081-.183.212-.063.13-.074.282zM21.933 61.572V59.83q.092-.04.25-.078.163-.042.388-.042.074 0 .145.01.074.007.13.021.06.01.089.022l-.053.225q-.032-.014-.12-.028-.088-.018-.226-.018-.134 0-.222.022-.088.017-.117.031v1.577zM23.82 61.611q-.197 0-.353-.056-.155-.057-.243-.184t-.088-.335q0-.201.099-.324.098-.127.271-.184.177-.056.395-.056.1 0 .209.017.109.018.137.032v-.106q0-.12-.032-.23-.028-.112-.12-.183-.091-.07-.278-.07-.194 0-.297.028-.102.028-.151.046l-.036-.226q.064-.028.194-.053.131-.024.307-.024.25 0 .395.088.149.088.212.243.067.152.067.35v1.146q-.074.018-.264.05-.19.031-.424.031zm.04-.226q.123 0 .221-.007.1-.01.166-.024v-.614q-.035-.018-.12-.036-.084-.017-.219-.017-.112 0-.229.024-.116.025-.197.1-.078.073-.078.221 0 .198.123.276.124.077.332.077zM25.574 61.604q-.17-.007-.283-.056-.109-.05-.162-.152-.053-.106-.053-.282V58.88l.265-.046v2.261q0 .17.06.219.063.05.211.07zM26.6 61.611q-.233 0-.367-.081-.134-.081-.19-.243-.053-.163-.053-.406v-1.665l.264-.046v.575h.717v.222h-.717v.935q0 .194.043.296.046.103.127.141.084.036.197.036.134 0 .223-.032.091-.032.144-.056l.057.215q-.053.031-.177.07-.12.04-.268.04zM28.184 61.611q-.32 0-.522-.123-.198-.124-.293-.34-.092-.214-.092-.49 0-.32.117-.532.116-.212.3-.318.187-.105.391-.105.23 0 .395.098.17.096.262.297.091.197.091.504 0 .025-.003.06 0 .032-.004.06h-1.273q.014.31.165.483.156.17.48.17.18 0 .293-.032.116-.035.166-.06l.046.222q-.05.028-.194.067-.141.04-.325.04zm-.624-1.104h1.005q-.003-.18-.06-.307-.056-.13-.162-.198-.102-.07-.254-.07-.155 0-.272.081-.116.081-.183.212-.064.13-.074.282zM29.927 61.611q-.233 0-.367-.081-.134-.081-.19-.243-.053-.163-.053-.406v-1.665l.264-.046v.575h.716v.222h-.716v.935q0 .194.042.296.046.103.127.141.085.036.198.036.134 0 .222-.032.092-.032.145-.056l.056.215q-.053.031-.176.07-.12.04-.268.04zM31.51 61.611q-.32 0-.521-.123-.198-.124-.293-.34-.092-.214-.092-.49 0-.32.117-.532.116-.212.3-.318.186-.105.391-.105.23 0 .395.098.17.096.261.297.092.197.092.504 0 .025-.004.06 0 .032-.003.06h-1.274q.014.31.166.483.155.17.48.17.18 0 .293-.032.116-.035.166-.06l.045.222q-.049.028-.194.067-.14.04-.324.04zm-.624-1.104h1.006q-.004-.18-.06-.307-.057-.13-.162-.198-.103-.07-.254-.07-.156 0-.272.081-.116.081-.184.212-.063.13-.074.282zM33.423 61.572q.014-.324.032-.645.017-.321.038-.628.022-.31.046-.604.025-.296.057-.567h.247q.102.169.215.395.116.222.233.469.116.243.222.48.11.236.194.426l.19-.426q.11-.237.226-.48.117-.247.233-.47.116-.225.215-.394h.233q.032.271.057.567.028.293.045.604.022.307.04.628.02.32.034.645h-.275q-.014-.36-.031-.705-.015-.35-.036-.674-.02-.325-.05-.614l-.112.222-.17.353-.193.406-.177.384-.12.279h-.236q-.042-.102-.124-.279-.077-.176-.176-.384-.095-.208-.19-.406-.096-.201-.173-.353-.074-.155-.11-.222-.028.29-.049.614t-.039.674l-.028.705zM37.265 61.615q-.244 0-.434-.117-.19-.12-.3-.335-.106-.215-.106-.504 0-.29.106-.501.11-.216.3-.336.19-.12.434-.12.247 0 .437.12t.296.336q.11.211.11.5 0 .29-.11.505-.105.215-.296.335-.187.117-.437.117zm0-.237q.176 0 .303-.088t.194-.25q.07-.163.07-.381 0-.22-.07-.381-.067-.163-.194-.25-.127-.09-.303-.09-.173 0-.3.09-.127.087-.198.25-.067.162-.067.38 0 .22.067.382.07.162.198.25.127.088.3.088zM39.392 61.615q-.268 0-.473-.113-.204-.117-.317-.328-.113-.216-.113-.512 0-.282.095-.497.099-.216.282-.335.187-.124.448-.124.17 0 .297.05.13.045.194.091v-.966l.26-.046v2.68q-.066.022-.165.047-.099.02-.226.035-.123.018-.282.018zm.003-.237q.156 0 .254-.014.103-.018.156-.032v-1.238q-.06-.05-.184-.099-.123-.053-.279-.053-.158 0-.271.057-.11.053-.18.152-.067.098-.099.229-.028.13-.028.279 0 .229.077.391.082.159.223.244.144.084.331.084zM41.05 61.615q-.236 0-.37-.043-.131-.039-.177-.06l.064-.233.158.06q.12.046.325.046.194 0 .314-.06t.12-.208q0-.095-.043-.151-.042-.06-.137-.11-.092-.05-.254-.113-.138-.056-.254-.12-.117-.063-.19-.162-.071-.099-.071-.254 0-.152.077-.265.078-.112.22-.176.144-.063.341-.063.184 0 .31.031.128.032.18.057l-.06.23q-.045-.026-.147-.057-.103-.036-.29-.036-.148 0-.257.064-.11.06-.11.194 0 .095.046.155.046.057.138.102.092.046.226.1.151.06.271.126.124.064.198.166.074.102.074.272 0 .165-.085.282-.084.113-.243.17-.155.056-.374.056zM43.71 61.608q-.275 0-.438-.103-.158-.106-.229-.296-.067-.19-.067-.441v-1.023h.265v.952q0 .247.05.396.048.148.158.215.113.063.296.063.148 0 .261-.014.117-.018.152-.028v-1.584h.26v1.764q-.105.028-.285.063-.176.036-.423.036zM45.012 61.572v-1.764q.109-.028.285-.063.177-.035.424-.035.285 0 .444.105.159.106.222.297.067.187.067.437v1.023h-.264v-.949q0-.25-.046-.398-.046-.149-.155-.216-.11-.067-.304-.067-.148 0-.26.018-.114.018-.149.028v1.584zM47.823 61.615q-.268 0-.472-.113-.205-.117-.318-.328-.113-.216-.113-.512 0-.282.095-.497.1-.216.283-.335.187-.124.448-.124.169 0 .296.05.13.045.194.091v-.966l.261-.046v2.68q-.067.022-.166.047-.099.02-.226.035-.123.018-.282.018zm.004-.237q.155 0 .254-.014.102-.018.155-.032v-1.238q-.06-.05-.183-.099-.124-.053-.28-.053-.158 0-.27.057-.11.053-.18.152-.068.098-.1.229-.028.13-.028.279 0 .229.078.391.081.159.222.244.145.084.332.084zM50.455 61.625q-.286 0-.476-.063-.187-.064-.258-.106l.088-.233q.074.042.237.102.166.06.409.06.279 0 .43-.098.152-.103.152-.322 0-.169-.085-.264-.08-.099-.218-.159-.134-.063-.297-.127-.197-.077-.345-.162-.145-.088-.226-.212-.078-.127-.078-.317 0-.212.095-.357.096-.144.276-.218.18-.074.426-.074.205 0 .378.053.176.049.272.109l-.092.23q-.102-.071-.25-.114-.145-.042-.311-.042-.226 0-.37.092-.145.091-.145.3 0 .14.07.229.071.088.194.148.124.06.28.124.2.077.359.165.162.085.258.223.095.134.095.363 0 .222-.106.37-.106.149-.3.226-.194.074-.462.074zM51.746 61.572v-1.827h.265v1.827zm.134-2.219q-.077 0-.134-.053-.053-.053-.053-.14 0-.085.053-.138.057-.053.134-.053.078 0 .13.053.057.053.057.137 0 .088-.056.141-.053.053-.13.053zM53.372 61.611q-.289 0-.483-.116-.194-.12-.293-.335-.098-.216-.098-.498 0-.286.102-.5.102-.216.293-.336.194-.123.458-.123.145 0 .275.024.131.025.205.064l-.067.222q-.07-.032-.159-.053-.088-.021-.233-.021-.292 0-.448.19-.151.19-.151.533 0 .212.063.374.064.159.205.25.14.089.374.089.137 0 .24-.032.105-.032.155-.056l.053.225q-.067.036-.205.067-.137.032-.286.032zM54.244 61.572v-2.691l.264-.046v.956q.103-.04.216-.06.116-.021.225-.021.29 0 .448.105.16.106.223.297.067.187.067.437v1.023h-.265v-.949q0-.25-.046-.398-.046-.149-.155-.216-.11-.067-.307-.067-.074 0-.162.018-.085.014-.152.032-.067.017-.092.028v1.552zM57.059 61.611q-.321 0-.522-.123-.198-.124-.293-.34-.092-.214-.092-.49 0-.32.117-.532.116-.212.3-.318.187-.105.391-.105.23 0 .395.098.17.096.261.297.092.197.092.504 0 .025-.003.06 0 .032-.004.06h-1.273q.014.31.165.483.156.17.48.17.18 0 .293-.032.116-.035.166-.06l.046.222q-.05.028-.194.067-.142.04-.325.04zm-.624-1.104h1.005q-.004-.18-.06-.307-.056-.13-.162-.198-.103-.07-.254-.07-.156 0-.272.081-.116.081-.183.212-.064.13-.074.282zM58.205 61.572V59.83q.092-.04.251-.078.162-.042.388-.042.074 0 .145.01.074.007.13.021.06.01.088.022l-.053.225q-.031-.014-.12-.028-.088-.018-.225-.018-.134 0-.223.022-.088.017-.116.031v1.577zM59.543 61.572v-2.691l.264-.046v.956q.102-.04.215-.06.117-.021.226-.021.29 0 .448.105.159.106.222.297.067.187.067.437v1.023h-.264v-.949q0-.25-.046-.398-.046-.149-.155-.216-.11-.067-.307-.067-.074 0-.162.018-.085.014-.152.032-.067.017-.092.028v1.552zM62.358 61.611q-.321 0-.522-.123-.198-.124-.293-.34-.092-.214-.092-.49 0-.32.116-.532.117-.212.3-.318.187-.105.392-.105.23 0 .395.098.17.096.261.297.092.197.092.504 0 .025-.004.06 0 .032-.003.06h-1.274q.014.31.166.483.155.17.48.17.18 0 .293-.032.116-.035.165-.06l.046.222q-.05.028-.194.067-.14.04-.324.04zm-.625-1.104h1.006q-.004-.18-.06-.307-.057-.13-.163-.198-.102-.07-.254-.07-.155 0-.271.081-.117.081-.184.212-.063.13-.074.282zM63.504 61.572v-1.827h.265v1.827zm.134-2.219q-.077 0-.134-.053-.053-.053-.053-.14 0-.085.053-.138.057-.053.134-.053.078 0 .13.053.057.053.057.137 0 .088-.056.141-.053.053-.13.053zM64.958 61.611q-.233 0-.367-.081-.134-.081-.19-.243-.054-.163-.054-.406v-1.665l.265-.046v.575h.716v.222h-.716v.935q0 .194.042.296.046.103.127.141.085.036.198.036.134 0 .222-.032.092-.032.145-.056l.056.215q-.053.031-.176.07-.12.04-.268.04zM66.14 61.615q-.237 0-.37-.043-.131-.039-.177-.06l.063-.233.159.06q.12.046.324.046.194 0 .314-.06t.12-.208q0-.095-.042-.151-.042-.06-.138-.11-.091-.05-.254-.113-.137-.056-.254-.12-.116-.063-.19-.162-.07-.099-.07-.254 0-.152.077-.265.078-.112.219-.176.144-.063.342-.063.183 0 .31.031.127.032.18.057l-.06.23q-.046-.026-.148-.057-.102-.036-.29-.036-.147 0-.257.064-.109.06-.109.194 0 .095.046.155.046.057.137.102.092.046.226.1.152.06.272.126.123.064.197.166.075.102.075.272 0 .165-.085.282-.085.113-.244.17-.155.056-.374.056zM67.773 61.604q-.17-.007-.282-.056-.11-.05-.163-.152-.053-.106-.053-.282V58.88l.265-.046v2.261q0 .17.06.219.063.05.212.07zM68.916 61.608q-.275 0-.438-.103-.158-.106-.229-.296-.067-.19-.067-.441v-1.023h.265v.952q0 .247.049.396.05.148.159.215.113.063.296.063.148 0 .261-.014.117-.018.152-.028v-1.584h.26v1.764q-.105.028-.285.063-.176.036-.423.036zm.296-2.23q-.074 0-.127-.05-.05-.052-.05-.133 0-.082.05-.131.053-.05.127-.05.074 0 .124.05.053.05.053.13 0 .082-.053.135-.05.049-.124.049zm-.624 0q-.074 0-.124-.05-.05-.052-.05-.133 0-.082.05-.131.05-.05.124-.05t.123.05q.053.05.053.13 0 .082-.053.135-.05.049-.123.049zM70.987 61.611q-.29 0-.484-.116-.194-.12-.292-.335-.1-.216-.1-.498 0-.286.103-.5.102-.216.293-.336.194-.123.458-.123.145 0 .276.024.13.025.204.064l-.067.222q-.07-.032-.159-.053-.088-.021-.232-.021-.293 0-.448.19-.152.19-.152.533 0 .212.063.374.064.159.205.25.141.089.374.089.138 0 .24-.032.106-.032.155-.056l.053.225q-.067.036-.205.067-.137.032-.285.032zM71.858 61.572v-2.691l.265-.046v1.714l.19-.19q.106-.106.215-.219.11-.113.205-.215.095-.102.162-.18h.314q-.106.113-.25.26-.141.15-.29.3-.144.149-.268.269.113.078.233.197.124.117.244.254.12.138.222.28.106.14.18.267h-.307q-.106-.18-.254-.352-.148-.177-.304-.322-.155-.144-.292-.232v.906zM74.38 61.611q-.32 0-.522-.123-.197-.124-.293-.34-.091-.214-.091-.49 0-.32.116-.532.117-.212.3-.318.187-.105.392-.105.229 0 .395.098.169.096.26.297.092.197.092.504 0 .025-.003.06 0 .032-.004.06H73.75q.014.31.166.483.155.17.48.17.18 0 .292-.032.117-.035.166-.06l.046.222q-.05.028-.194.067-.141.04-.325.04zm-.624-1.104h1.005q-.003-.18-.06-.307-.056-.13-.162-.198-.102-.07-.254-.07-.155 0-.272.081-.116.081-.183.212-.063.13-.074.282zM75.527 61.572v-1.764q.11-.028.286-.063t.423-.035q.286 0 .444.105.16.106.223.297.067.187.067.437v1.023h-.265v-.949q0-.25-.046-.398-.046-.149-.155-.216-.11-.067-.303-.067-.148 0-.261.018-.113.018-.149.028v1.584zM78.737 61.572q-.085-.194-.166-.402-.08-.208-.158-.434-.078-.23-.149-.476-.07-.247-.134-.515h.28q.038.18.09.388.057.208.12.416.064.208.128.395.067.187.123.325.088-.233.173-.501.085-.268.155-.533.074-.264.124-.49h.218q.046.226.117.494.07.264.155.532.088.269.177.501.06-.137.123-.324t.127-.395q.063-.212.116-.42.057-.208.096-.388h.264q-.067.268-.137.515t-.149.476q-.074.226-.155.434-.08.208-.17.402h-.235q-.067-.166-.145-.377-.078-.212-.159-.455-.077-.244-.144-.498-.064.254-.145.498-.078.243-.155.455-.078.211-.145.377zM81.087 61.572v-1.827h.264v1.827zm.134-2.219q-.078 0-.134-.053-.053-.053-.053-.14 0-.085.053-.138.056-.053.134-.053.077 0 .13.053.057.053.057.137 0 .088-.057.141-.053.053-.13.053zM82.745 61.611q-.321 0-.522-.123-.198-.124-.293-.34-.092-.214-.092-.49 0-.32.117-.532.116-.212.3-.318.186-.105.39-.105.23 0 .396.098.17.096.261.297.092.197.092.504 0 .025-.004.06 0 .032-.003.06h-1.274q.014.31.166.483.155.17.48.17.18 0 .293-.032.116-.035.165-.06l.046.222q-.05.028-.194.067-.14.04-.324.04zm-.625-1.104h1.006q-.004-.18-.06-.307-.057-.13-.163-.198-.102-.07-.254-.07-.155 0-.271.081-.117.081-.184.212-.063.13-.074.282zM84.717 61.572v-2.444h.275v2.204h1.143v.24zM87.229 61.615q-.244 0-.434-.117-.19-.12-.3-.335-.106-.215-.106-.504 0-.29.106-.501.11-.216.3-.336.19-.12.434-.12.246 0 .437.12.19.12.296.336.11.211.11.5 0 .29-.11.505-.106.215-.296.335-.187.117-.437.117zm0-.237q.176 0 .303-.088t.194-.25q.07-.163.07-.381 0-.22-.07-.381-.067-.163-.194-.25-.127-.09-.303-.09-.173 0-.3.09-.127.087-.198.25-.067.162-.067.38 0 .22.067.382.07.162.198.25.127.088.3.088zM89.134 62.236q-.173 0-.321-.029-.149-.028-.254-.063l.052-.233q.089.035.233.063.145.032.297.032.211 0 .342-.053.13-.053.19-.17.064-.115.064-.306v-.116q-.05.035-.17.088-.12.05-.306.05-.216 0-.403-.089-.183-.092-.296-.286-.11-.194-.11-.508 0-.26.103-.465.106-.205.3-.321.197-.12.469-.12.247 0 .406.035.162.032.264.063v1.655q0 .413-.215.593-.212.18-.645.18zm.137-.97q.145 0 .268-.043.127-.042.194-.099v-1.136q-.056-.017-.148-.031-.092-.015-.257-.015-.19 0-.325.085-.134.085-.205.24-.07.152-.07.353 0 .173.046.296.046.124.123.201.078.078.173.113.099.035.201.035zM91.557 61.572v-.649h-1.1v-.17q.063-.165.176-.373.116-.208.26-.43.15-.226.315-.438.166-.212.339-.384h.268v1.58h.3v.215h-.3v.65zm-.836-.864h.836v-1.28q-.116.123-.236.282-.12.155-.233.328-.113.169-.208.342-.092.173-.159.328zM93.134 61.625q-.286 0-.476-.063-.187-.064-.258-.106l.088-.233q.075.042.237.102.166.06.409.06.279 0 .43-.098.152-.103.152-.322 0-.169-.085-.264-.08-.099-.218-.159-.134-.063-.297-.127-.197-.077-.345-.162-.145-.088-.226-.212-.078-.127-.078-.317 0-.212.096-.357.095-.144.275-.218.18-.074.427-.074.204 0 .377.053.176.049.272.109l-.092.23q-.102-.071-.25-.114-.145-.042-.311-.042-.226 0-.37.092-.145.091-.145.3 0 .14.07.229.071.088.195.148.123.06.278.124.201.077.36.165.162.085.258.223.095.134.095.363 0 .222-.106.37-.106.149-.3.226-.194.074-.462.074zM94.425 61.572v-2.691l.265-.046v.956q.102-.04.215-.06.116-.021.226-.021.289 0 .448.105.159.106.222.297.067.187.067.437v1.023h-.265v-.949q0-.25-.045-.398-.046-.149-.156-.216-.109-.067-.307-.067-.074 0-.162.018-.084.014-.151.032-.068.017-.092.028v1.552zM97.24 61.611q-.32 0-.522-.123-.197-.124-.293-.34-.091-.214-.091-.49 0-.32.116-.532.117-.212.3-.318.187-.105.392-.105.229 0 .395.098.169.096.26.297.092.197.092.504 0 .025-.003.06 0 .032-.004.06H96.61q.014.31.166.483.155.17.48.17.18 0 .292-.032.117-.035.166-.06l.046.222q-.05.028-.194.067-.141.04-.325.04zm-.624-1.104h1.005q-.003-.18-.06-.307-.056-.13-.162-.198-.102-.07-.254-.07-.155 0-.272.081-.116.081-.183.212-.063.13-.074.282zM98.88 61.604q-.169-.007-.281-.056-.11-.05-.163-.152-.053-.106-.053-.282V58.88l.265-.046v2.261q0 .17.06.219.063.05.212.07zM99.805 61.604q-.17-.007-.282-.056-.11-.05-.162-.152-.053-.106-.053-.282V58.88l.264-.046v2.261q0 .17.06.219.064.05.212.07zM101.844 61.611q-.32 0-.522-.123-.198-.124-.293-.34-.091-.214-.091-.49 0-.32.116-.532.116-.212.3-.318.187-.105.391-.105.23 0 .395.098.17.096.262.297.091.197.091.504 0 .025-.004.06 0 .032-.004.06h-1.273q.014.31.165.483.156.17.48.17.18 0 .293-.032.116-.035.166-.06l.046.222q-.05.028-.194.067-.141.04-.325.04zm-.624-1.104h1.005q-.004-.18-.06-.307-.056-.13-.162-.198-.102-.07-.254-.07-.155 0-.272.081-.116.081-.183.212-.064.13-.074.282zM102.99 61.572v-1.764q.11-.028.286-.063.177-.035.424-.035.285 0 .444.105.159.106.222.297.067.187.067.437v1.023h-.264v-.949q0-.25-.046-.398-.046-.149-.155-.216-.11-.067-.304-.067-.148 0-.26.018-.114.018-.149.028v1.584zM105.601 61.611q-.233 0-.367-.081-.134-.081-.19-.243-.053-.163-.053-.406v-1.665l.264-.046v.575h.717v.222h-.717v.935q0 .194.043.296.046.103.127.141.084.036.197.036.134 0 .223-.032.091-.032.144-.056l.057.215q-.053.031-.177.07-.12.04-.268.04zM106.391 61.572v-2.691l.265-.046v.956q.102-.04.215-.06.117-.021.226-.021.29 0 .448.105.159.106.222.297.067.187.067.437v1.023h-.264v-.949q0-.25-.046-.398-.046-.149-.155-.216-.11-.067-.307-.067-.074 0-.163.018-.084.014-.151.032-.067.017-.092.028v1.552zM108.96 61.611q-.198 0-.353-.056-.155-.057-.244-.184-.088-.127-.088-.335 0-.201.099-.324.099-.127.272-.184.176-.056.395-.056.099 0 .208.017.11.018.138.032v-.106q0-.12-.032-.23-.028-.112-.12-.183-.092-.07-.279-.07-.194 0-.296.028-.103.028-.152.046l-.035-.226q.063-.028.194-.053.13-.024.307-.024.25 0 .395.088.148.088.211.243.067.152.067.35v1.146q-.074.018-.264.05-.19.031-.423.031zm.038-.226q.124 0 .223-.007.098-.01.165-.024v-.614q-.035-.018-.12-.036-.084-.017-.218-.017-.113 0-.23.024-.116.025-.197.1-.078.073-.078.221 0 .198.124.276.123.077.331.077zM110.713 61.604q-.17-.007-.282-.056-.11-.05-.163-.152-.052-.106-.052-.282V58.88l.264-.046v2.261q0 .17.06.219.064.05.212.07zM111.74 61.611q-.233 0-.367-.081-.134-.081-.19-.243-.054-.163-.054-.406v-1.665l.265-.046v.575h.716v.222h-.716v.935q0 .194.042.296.046.103.127.141.085.036.198.036.134 0 .222-.032.092-.032.145-.056l.056.215q-.053.031-.176.07-.12.04-.269.04zM113.323 61.611q-.32 0-.522-.123-.197-.124-.292-.34-.092-.214-.092-.49 0-.32.116-.532.117-.212.3-.318.187-.105.392-.105.23 0 .395.098.17.096.26.297.093.197.093.504 0 .025-.004.06 0 .032-.004.06h-1.274q.014.31.166.483.155.17.48.17.18 0 .292-.032.117-.035.166-.06l.046.222q-.05.028-.194.067-.141.04-.324.04zm-.624-1.104h1.005q-.003-.18-.06-.307-.056-.13-.162-.198-.102-.07-.254-.07-.155 0-.271.081-.117.081-.184.212-.063.13-.074.282zM114.47 61.572v-1.764q.11-.028.286-.063t.423-.035q.286 0 .445.105.158.106.222.297.067.187.067.437v1.023h-.265v-.949q0-.25-.046-.398-.046-.149-.155-.216-.11-.067-.303-.067-.148 0-.261.018-.113.018-.148.028v1.584zM116.622 61.615q-.095 0-.152-.06-.056-.06-.056-.149 0-.088.056-.148.057-.06.152-.06t.152.06q.056.06.056.148 0 .089-.056.149-.057.06-.152.06zM118.178 61.572v-2.444h1.421v.236h-1.146v.822h1.016v.236h-1.016v1.15zM120.675 61.608q-.275 0-.437-.103-.159-.106-.23-.296-.066-.19-.066-.441v-1.023h.264v.952q0 .247.05.396.049.148.158.215.113.063.297.063.148 0 .26-.014.117-.018.152-.028v-1.584h.262v1.764q-.106.028-.286.063-.177.036-.424.036zm.297-2.23q-.074 0-.127-.05-.05-.052-.05-.133 0-.082.05-.131.053-.05.127-.05.074 0 .123.05.053.05.053.13 0 .082-.053.135-.05.049-.123.049zm-.625 0q-.074 0-.123-.05-.05-.052-.05-.133 0-.082.05-.131.05-.05.123-.05.074 0 .124.05.053.05.053.13 0 .082-.053.135-.05.049-.124.049zM121.977 61.572V59.83q.092-.04.25-.078.163-.042.389-.042.074 0 .144.01.074.007.13.021.06.01.089.022l-.053.225q-.032-.014-.12-.028-.088-.018-.226-.018-.134 0-.222.022-.088.017-.116.031v1.577zM124.122 61.572v-1.764q.11-.028.279-.063.17-.035.42-.035.176 0 .3.049.126.05.204.148.032-.025.113-.07.081-.05.204-.089.127-.038.286-.038.282 0 .424.109.144.106.194.296.049.187.049.434v1.023h-.265v-.949q0-.233-.031-.38-.032-.152-.124-.226-.092-.075-.271-.075-.131 0-.23.032-.095.028-.159.067-.06.039-.088.06.032.088.046.201.018.113.018.237v1.033h-.265v-.949q0-.233-.032-.38-.031-.152-.127-.226-.091-.075-.278-.075-.103 0-.187.011-.081.007-.138.018-.053.01-.077.017v1.584zM127.967 61.611q-.32 0-.522-.123-.197-.124-.293-.34-.091-.214-.091-.49 0-.32.116-.532.117-.212.3-.318.187-.105.392-.105.229 0 .395.098.169.096.26.297.092.197.092.504 0 .025-.004.06 0 .032-.004.06h-1.273q.014.31.166.483.155.17.48.17.18 0 .292-.032.117-.035.166-.06l.046.222q-.05.028-.194.067-.141.04-.325.04zm-.624-1.104h1.005q-.004-.18-.06-.307-.056-.13-.162-.198-.102-.07-.254-.07-.155 0-.272.081-.116.081-.183.212-.064.13-.074.282zM129.114 61.572v-2.691l.264-.046v.956q.103-.04.216-.06.116-.021.225-.021.29 0 .448.105.16.106.223.297.067.187.067.437v1.023h-.265v-.949q0-.25-.046-.398-.046-.149-.155-.216-.11-.067-.307-.067-.074 0-.162.018-.085.014-.152.032-.067.017-.092.028v1.552zM131.128 61.572V59.83q.092-.04.25-.078.163-.042.389-.042.074 0 .144.01.074.007.13.021.06.01.09.022l-.054.225q-.031-.014-.12-.028-.088-.018-.226-.018-.134 0-.222.022-.088.017-.116.031v1.577zM133.29 61.572v-2.444h.276v2.444zM134.176 61.572v-1.764q.11-.028.286-.063t.423-.035q.286 0 .445.105.159.106.222.297.067.187.067.437v1.023h-.265v-.949q0-.25-.045-.398-.046-.149-.156-.216-.109-.067-.303-.067-.148 0-.261.018-.113.018-.148.028v1.584zM136.19 61.572v-2.014q0-.356.17-.54.17-.183.518-.183.145 0 .24.024.1.022.134.043l-.052.222q-.043-.021-.12-.039-.075-.017-.187-.017-.237 0-.34.12-.098.12-.098.377v.18h.723v.222h-.723v1.605zM138.265 61.615q-.244 0-.434-.117-.19-.12-.3-.335-.106-.215-.106-.504 0-.29.106-.501.11-.216.3-.336.19-.12.434-.12.247 0 .437.12t.297.336q.109.211.109.5 0 .29-.11.505-.105.215-.296.335-.187.117-.437.117zm0-.237q.176 0 .303-.088t.194-.25q.07-.163.07-.381 0-.22-.07-.381-.067-.163-.194-.25-.127-.09-.303-.09-.173 0-.3.09-.127.087-.198.25-.067.162-.067.38 0 .22.067.382.071.162.198.25t.3.088zM139.986 61.615q-.236 0-.37-.043-.13-.039-.176-.06l.063-.233.159.06q.12.046.324.046.194 0 .314-.06t.12-.208q0-.095-.042-.151-.042-.06-.138-.11-.091-.05-.254-.113-.137-.056-.254-.12-.116-.063-.19-.162-.07-.099-.07-.254 0-.152.077-.265.078-.112.219-.176.144-.063.342-.063.183 0 .31.031.127.032.18.057l-.06.23q-.046-.026-.148-.057-.102-.036-.29-.036-.147 0-.257.064-.11.06-.11.194 0 .095.047.155.046.057.137.102.092.046.226.1.152.06.272.126.123.064.197.166.074.102.074.272 0 .165-.084.282-.085.113-.244.17-.155.056-.374.056zM141.186 62.133l-.198-.077q.081-.166.113-.343.036-.172.036-.349 0-.028-.004-.053v-.05q0-.024-.004-.045h.292q.004.035.004.063v.043q0 .215-.063.423-.064.212-.177.388zM143.193 61.615q-.236 0-.37-.043-.13-.039-.177-.06l.064-.233.159.06q.12.046.324.046.194 0 .314-.06t.12-.208q0-.095-.042-.151-.042-.06-.138-.11-.091-.05-.254-.113-.137-.056-.254-.12-.116-.063-.19-.162-.07-.099-.07-.254 0-.152.077-.265.077-.112.218-.176.145-.063.343-.063.183 0 .31.031.127.032.18.057l-.06.23q-.046-.026-.148-.057-.102-.036-.29-.036-.148 0-.257.064-.11.06-.11.194 0 .095.047.155.045.057.137.102.092.046.226.1.152.06.272.126.123.064.197.166.074.102.074.272 0 .165-.084.282-.085.113-.244.17-.155.056-.374.056zM145.102 61.611q-.29 0-.484-.116-.194-.12-.292-.335-.1-.216-.1-.498 0-.286.103-.5.102-.216.293-.336.194-.123.459-.123.144 0 .275.024.13.025.204.064l-.067.222q-.07-.032-.158-.053-.089-.021-.233-.021-.293 0-.448.19-.152.19-.152.533 0 .212.064.374.063.159.204.25.141.089.374.089.138 0 .24-.032.106-.032.155-.056l.053.225q-.067.036-.205.067-.137.032-.285.032zM145.973 61.572v-2.691l.265-.046v.956q.102-.04.215-.06.116-.021.226-.021.289 0 .448.105.158.106.222.297.067.187.067.437v1.023h-.265v-.949q0-.25-.046-.398-.045-.149-.155-.216t-.307-.067q-.074 0-.162.018-.085.014-.152.032-.067.017-.091.028v1.552zM148.541 61.611q-.197 0-.352-.056-.156-.057-.244-.184t-.088-.335q0-.201.099-.324.099-.127.271-.184.177-.056.395-.056.1 0 .209.017.109.018.137.032v-.106q0-.12-.031-.23-.029-.112-.12-.183-.092-.07-.28-.07-.193 0-.295.028-.103.028-.152.046l-.035-.226q.063-.028.194-.053.13-.024.306-.024.25 0 .396.088.148.088.211.243.067.152.067.35v1.146q-.074.018-.264.05-.19.031-.424.031zm.04-.226q.123 0 .221-.007.1-.01.166-.024v-.614q-.035-.018-.12-.036-.084-.017-.218-.017-.113 0-.23.024-.116.025-.197.1-.078.073-.078.221 0 .198.124.276.123.077.331.077zM150.513 61.608q-.275 0-.437-.103-.159-.106-.23-.296-.066-.19-.066-.441v-1.023h.264v.952q0 .247.05.396.049.148.158.215.113.063.297.063.148 0 .26-.014.117-.018.152-.028v-1.584h.261v1.764q-.105.028-.285.063-.177.036-.424.036zM152.623 61.572v-1.764q.11-.028.279-.063.169-.035.42-.035.176 0 .3.049.126.05.204.148.032-.025.113-.07.08-.05.204-.089.127-.038.286-.038.282 0 .424.109.144.106.194.296.049.187.049.434v1.023h-.265v-.949q0-.233-.031-.38-.032-.152-.124-.226-.092-.075-.271-.075-.131 0-.23.032-.095.028-.158.067-.06.039-.089.06.032.088.046.201.018.113.018.237v1.033h-.265v-.949q0-.233-.031-.38-.032-.152-.127-.226-.092-.075-.28-.075-.101 0-.186.011-.081.007-.138.018-.053.01-.077.017v1.584zM156.221 61.611q-.197 0-.352-.056-.156-.057-.244-.184t-.088-.335q0-.201.099-.324.099-.127.271-.184.177-.056.395-.056.1 0 .209.017.109.018.137.032v-.106q0-.12-.032-.23-.028-.112-.12-.183-.091-.07-.278-.07-.194 0-.296.028-.103.028-.152.046l-.035-.226q.063-.028.194-.053.13-.024.306-.024.25 0 .396.088.148.088.211.243.067.152.067.35v1.146q-.074.018-.264.05-.19.031-.424.031zm.04-.226q.123 0 .221-.007.1-.01.166-.024v-.614q-.035-.018-.12-.036-.084-.017-.218-.017-.113 0-.23.024-.116.025-.197.1-.078.073-.078.221 0 .198.124.276.123.077.331.077zM157.975 61.604q-.17-.007-.283-.056-.109-.05-.162-.152-.053-.106-.053-.282V58.88l.265-.046v2.261q0 .17.06.219.063.05.211.07zM159.767 61.611q-.198 0-.353-.056-.155-.057-.243-.184-.089-.127-.089-.335 0-.201.1-.324.098-.127.27-.184.177-.056.396-.056.099 0 .208.017.11.018.138.032v-.106q0-.12-.032-.23-.028-.112-.12-.183-.092-.07-.279-.07-.194 0-.296.028-.102.028-.152.046l-.035-.226q.063-.028.194-.053.13-.024.307-.024.25 0 .395.088.148.088.212.243.067.152.067.35v1.146q-.074.018-.265.05-.19.031-.423.031zm.039-.226q.123 0 .222-.007.099-.01.166-.024v-.614q-.036-.018-.12-.036-.085-.017-.22-.017-.112 0-.228.024-.117.025-.198.1-.078.073-.078.221 0 .198.124.276.123.077.332.077zM161.739 61.608q-.275 0-.438-.103-.158-.106-.229-.296-.067-.19-.067-.441v-1.023h.265v.952q0 .247.049.396.05.148.159.215.113.063.296.063.148 0 .261-.014.117-.018.152-.028v-1.584h.26v1.764q-.105.028-.285.063-.176.036-.423.036zM163.04 61.572v-2.014q0-.356.17-.54.17-.183.518-.183.145 0 .24.024.1.022.134.043l-.053.222q-.042-.021-.12-.039-.074-.017-.186-.017-.237 0-.34.12-.098.12-.098.377v.18h.723v.222h-.723v1.605zM165.962 61.611q-.29 0-.484-.116-.194-.12-.293-.335-.098-.216-.098-.498 0-.286.102-.5.102-.216.293-.336.194-.123.458-.123.145 0 .275.024.131.025.205.064l-.067.222q-.07-.032-.159-.053-.088-.021-.232-.021-.293 0-.449.19-.151.19-.151.533 0 .212.063.374.064.159.205.25.141.089.374.089.137 0 .24-.032.106-.032.155-.056l.053.225q-.067.036-.205.067-.137.032-.286.032zM166.833 61.572v-2.691l.264-.046v.956q.103-.04.216-.06.116-.021.225-.021.29 0 .448.105.16.106.223.297.067.187.067.437v1.023h-.265v-.949q0-.25-.046-.398-.046-.149-.155-.216-.11-.067-.307-.067-.074 0-.162.018-.085.014-.152.032-.067.017-.092.028v1.552zM168.847 61.572v-1.827h.265v1.827zm.134-2.219q-.077 0-.134-.053-.053-.053-.053-.14 0-.085.053-.138.057-.053.134-.053.078 0 .13.053.057.053.057.137 0 .088-.056.141-.053.053-.13.053zM169.704 61.572v-1.764q.11-.028.28-.063.168-.035.419-.035.176 0 .3.049.127.05.204.148.032-.025.113-.07.081-.05.205-.089.127-.038.286-.038.282 0 .423.109.145.106.194.296.05.187.05.434v1.023h-.265v-.949q0-.233-.032-.38-.032-.152-.123-.226-.092-.075-.272-.075-.13 0-.23.032-.094.028-.158.067-.06.039-.088.06.032.088.046.201.017.113.017.237v1.033h-.264v-.949q0-.233-.032-.38-.032-.152-.127-.226-.092-.075-.279-.075-.102 0-.187.011-.08.007-.137.018-.053.01-.078.017v1.584zM173.462 61.608q-.276 0-.438-.103-.159-.106-.23-.296-.066-.19-.066-.441v-1.023h.264v.952q0 .247.05.396.05.148.159.215.112.063.296.063.148 0 .26-.014.117-.018.153-.028v-1.584h.26v1.764q-.105.028-.285.063-.176.036-.423.036zM175.36 61.611q-.233 0-.367-.081-.134-.081-.19-.243-.054-.163-.054-.406v-1.665l.265-.046v.575h.716v.222h-.716v.935q0 .194.042.296.046.103.127.141.085.036.198.036.134 0 .222-.032.092-.032.145-.056l.056.215q-.053.031-.176.07-.12.04-.268.04zM176.943 61.611q-.32 0-.522-.123-.197-.124-.292-.34-.092-.214-.092-.49 0-.32.116-.532.117-.212.3-.318.187-.105.392-.105.229 0 .395.098.17.096.26.297.093.197.093.504 0 .025-.004.06 0 .032-.004.06h-1.273q.014.31.166.483.155.17.48.17.18 0 .292-.032.117-.035.166-.06l.046.222q-.05.028-.194.067-.141.04-.325.04zm-.624-1.104h1.005q-.004-.18-.06-.307-.056-.13-.162-.198-.102-.07-.254-.07-.155 0-.271.081-.117.081-.184.212-.063.13-.074.282zM178.228 61.615q-.096 0-.152-.06-.057-.06-.057-.149 0-.088.057-.148.056-.06.152-.06.095 0 .151.06.057.06.057.148 0 .089-.057.149-.056.06-.151.06zM179.681 61.615q-.243 0-.434-.117-.19-.12-.3-.335-.106-.215-.106-.504 0-.29.106-.501.11-.216.3-.336.19-.12.434-.12.247 0 .437.12.191.12.297.336.11.211.11.5 0 .29-.11.505-.106.215-.297.335-.186.117-.437.117zm0-.237q.176 0 .303-.088t.194-.25q.071-.163.071-.381 0-.22-.07-.381-.068-.163-.195-.25-.127-.09-.303-.09-.173 0-.3.09-.127.087-.197.25-.067.162-.067.38 0 .22.067.382.07.162.197.25t.3.088zM181.011 61.572V59.83q.092-.04.25-.078.163-.042.389-.042.074 0 .144.01.074.007.13.021.06.01.089.022l-.053.225q-.032-.014-.12-.028-.088-.018-.226-.018-.134 0-.222.022-.088.017-.116.031v1.577zM182.92 62.236q-.173 0-.322-.029-.148-.028-.254-.063l.053-.233q.089.035.233.063.145.032.297.032.211 0 .342-.053.13-.053.19-.17.064-.115.064-.306v-.116q-.05.035-.17.088-.12.05-.307.05-.215 0-.402-.089-.183-.092-.296-.286-.11-.194-.11-.508 0-.26.103-.465.106-.205.3-.321.197-.12.469-.12.247 0 .406.035.162.032.264.063v1.655q0 .413-.215.593-.212.18-.646.18zm.137-.97q.145 0 .268-.043.127-.042.194-.099v-1.136q-.056-.017-.148-.031-.092-.015-.257-.015-.191 0-.325.085t-.205.24q-.07.152-.07.353 0 .173.046.296.046.124.123.201.078.078.173.113.099.035.201.035zM185.622 61.572q-.088-.187-.18-.402-.092-.215-.18-.448t-.17-.476q-.077-.247-.14-.501h.278q.057.243.141.526.089.278.187.546.103.265.194.466.07-.148.145-.339.074-.19.145-.395.07-.208.13-.413.06-.208.102-.391h.265q-.063.254-.145.5-.077.244-.165.477-.089.233-.18.448-.089.215-.18.402zM187.63 61.615q-.244 0-.435-.117-.19-.12-.3-.335-.106-.215-.106-.504 0-.29.106-.501.11-.216.3-.336.19-.12.434-.12.247 0 .438.12.19.12.296.336.11.211.11.5 0 .29-.11.505-.106.215-.296.335-.187.117-.438.117zm0-.237q.176 0 .303-.088t.194-.25q.07-.163.07-.381 0-.22-.07-.381-.067-.163-.195-.25-.126-.09-.303-.09-.173 0-.3.09-.127.087-.197.25-.067.162-.067.38 0 .22.067.382.07.162.197.25t.3.088zM188.96 61.572V59.83q.09-.04.25-.078.162-.042.388-.042.074 0 .144.01.074.007.13.021.06.01.089.022l-.053.225q-.032-.014-.12-.028-.088-.018-.226-.018-.134 0-.222.022-.088.017-.116.031v1.577zM190.97 61.615q-.155 0-.282-.018-.127-.014-.226-.035-.095-.025-.166-.046V58.88l.265-.046v1.012q.063-.046.19-.092.13-.049.3-.049.265 0 .448.124.184.12.279.335.099.215.099.494 0 .296-.113.511-.113.212-.318.328-.204.117-.476.117zm-.004-.237q.19 0 .332-.084.144-.085.222-.244.077-.162.077-.391 0-.149-.031-.28-.029-.13-.1-.228-.066-.1-.18-.152-.108-.057-.267-.057-.152 0-.275.053-.124.05-.184.1v1.237q.05.015.148.032.103.014.258.014zM193.16 61.611q-.32 0-.521-.123-.198-.124-.293-.34-.092-.214-.092-.49 0-.32.116-.532.117-.212.3-.318.187-.105.392-.105.23 0 .395.098.17.096.261.297.092.197.092.504 0 .025-.004.06 0 .032-.004.06h-1.274q.014.31.166.483.155.17.48.17.18 0 .293-.032.116-.035.165-.06l.046.222q-.05.028-.194.067-.14.04-.324.04zm-.624-1.104h1.006q-.004-.18-.06-.307-.057-.13-.163-.198-.102-.07-.254-.07-.155 0-.271.081-.117.081-.184.212-.063.13-.074.282zM194.307 61.572v-1.827h.265v1.827zm.134-2.219q-.077 0-.134-.053-.053-.053-.053-.14 0-.085.053-.138.057-.053.134-.053.078 0 .13.053.057.053.057.137 0 .088-.056.141-.053.053-.13.053zM195.302 61.615q-.095 0-.152-.06-.056-.06-.056-.149 0-.088.056-.148.057-.06.152-.06t.152.06q.056.06.056.148 0 .089-.056.149-.057.06-.152.06z"/></g></g></svg>
